<svg xmlns="http://www.w3.org/2000/svg" width="64" height="64" viewBox="0 0 64 64">
  <defs>
    <linearGradient id="bg" x1="0" y1="0" x2="1" y2="1">
      <stop offset="0" stop-color="#0b1220"/>
      <stop offset="1" stop-color="#070a12"/>
    </linearGradient>
    <linearGradient id="pyA" x1="0" y1="0" x2="1" y2="1">
      <stop offset="0" stop-color="#22d3ee"/>
      <stop offset="1" stop-color="#3b82f6"/>
    </linearGradient>
    <linearGradient id="pyB" x1="0" y1="0" x2="1" y2="1">
      <stop offset="0" stop-color="#7c3aed"/>
      <stop offset="1" stop-color="#10b981"/>
    </linearGradient>
  </defs>
  <rect x="6" y="6" width="52" height="52" rx="16" fill="url(#bg)"/>
  <rect x="6.5" y="6.5" width="51" height="51" rx="15.5" fill="none" stroke="rgba(255,255,255,0.16)"/>

  <!-- Simplified "python-like" mark (not the official logo) -->
  <path d="M22 18h14c4 0 6 2 6 6v5c0 4-2 6-6 6H26c-1.7 0-3 .3-4 1.2-1 .9-1.5 2.2-1.5 4v2.1H18v-2.6c0-4.8 2.7-8 8-8h10c2 0 3-1 3-3v-4.5c0-2-1-3-3-3H22c-2 0-3 1-3 3v2h-3v-2.6c0-4 2-6.4 6-6.4z" fill="url(#pyA)" opacity="0.95"/>
  <circle cx="27.5" cy="22.5" r="1.35" fill="rgba(7,10,18,0.9)"/>

  <path d="M42 46H28c-4 0-6-2-6-6v-5c0-4 2-6 6-6h10c1.7 0 3-.3 4-1.2 1-.9 1.5-2.2 1.5-4v-2.1H46v2.6c0 4.8-2.7 8-8 8H28c-2 0-3 1-3 3v4.5c0 2 1 3 3 3h14c2 0 3-1 3-3v-2h3v2.6c0 4-2 6.4-6 6.4z" fill="url(#pyB)" opacity="0.95"/>
  <circle cx="36.5" cy="41.5" r="1.35" fill="rgba(7,10,18,0.9)"/>
</svg>
