<svg xmlns="http://www.w3.org/2000/svg" width="64" height="64" viewBox="0 0 64 64">
  <defs>
    <linearGradient id="bg" x1="0" y1="0" x2="1" y2="1">
      <stop offset="0" stop-color="#0b1220"/>
      <stop offset="1" stop-color="#070a12"/>
    </linearGradient>
    <linearGradient id="liq" x1="0" y1="0" x2="1" y2="1">
      <stop offset="0" stop-color="#22d3ee"/>
      <stop offset="1" stop-color="#10b981"/>
    </linearGradient>
  </defs>
  <rect x="6" y="6" width="52" height="52" rx="16" fill="url(#bg)"/>
  <rect x="6.5" y="6.5" width="51" height="51" rx="15.5" fill="none" stroke="rgba(255,255,255,0.16)"/>

  <!-- Flask pictogram -->
  <path d="M27 16h10v4h-2v9.6l8.3 14.4c1.8 3.2-.5 7-4.2 7H24.9c-3.7 0-6-3.8-4.2-7L29 29.6V20h-2v-4z"
        fill="rgba(255,255,255,0.06)" stroke="rgba(229,231,255,0.6)" stroke-width="1.4" />
  <path d="M25.4 44.6c-.8 1.4.2 3 1.8 3h9.6c1.6 0 2.6-1.6 1.8-3l-3-5.2c-1.3.7-2.8 1.1-4.6 1.1s-3.3-.4-4.6-1.1l-3 5.2z"
        fill="url(#liq)" opacity="0.9"/>
  <circle cx="40.5" cy="28.5" r="2.1" fill="rgba(124,58,237,0.75)"/>
  <circle cx="23.5" cy="33.5" r="1.6" fill="rgba(34,211,238,0.8)"/>
</svg>
