<svg xmlns="http://www.w3.org/2000/svg" width="64" height="64" viewBox="0 0 64 64">
  <defs>
    <linearGradient id="bg" x1="0" y1="0" x2="1" y2="1">
      <stop offset="0" stop-color="#0b1220"/>
      <stop offset="1" stop-color="#070a12"/>
    </linearGradient>
    <linearGradient id="tile" x1="0" y1="0" x2="1" y2="1">
      <stop offset="0" stop-color="#facc15"/>
      <stop offset="1" stop-color="#f97316"/>
    </linearGradient>
  </defs>
  <rect x="6" y="6" width="52" height="52" rx="16" fill="url(#bg)"/>
  <rect x="6.5" y="6.5" width="51" height="51" rx="15.5" fill="none" stroke="rgba(255,255,255,0.16)"/>

  <!-- JS tile (classic language mark style) -->
  <rect x="18" y="18" width="28" height="28" rx="8" fill="url(#tile)" opacity="0.95"/>
  <rect x="18.5" y="18.5" width="27" height="27" rx="7.5" fill="none" stroke="rgba(255,255,255,0.18)"/>
  <path d="M28 28v10c0 2-1.2 3.2-3.1 3.2-1.3 0-2.4-.6-3.1-1.7" fill="none" stroke="rgba(7,10,18,0.85)" stroke-width="2.6" stroke-linecap="round"/>
  <path d="M35 40c.9 1 2.1 1.6 3.6 1.6 1.7 0 2.8-.8 2.8-2 0-1.1-.6-1.7-2.6-2.6l-1-.4c-2.6-1.1-4.1-2.5-4.1-5 0-2.5 2-4.3 5.1-4.3 2.2 0 3.8.8 4.9 2.7" fill="none" stroke="rgba(7,10,18,0.85)" stroke-width="2.6" stroke-linecap="round"/>
</svg>
