<svg xmlns="http://www.w3.org/2000/svg" width="64" height="64" viewBox="0 0 64 64">
  <defs>
    <linearGradient id="bg" x1="0" y1="0" x2="1" y2="1">
      <stop offset="0" stop-color="#0b1220"/>
      <stop offset="1" stop-color="#070a12"/>
    </linearGradient>
    <linearGradient id="db" x1="0" y1="0" x2="1" y2="1">
      <stop offset="0" stop-color="#7c3aed"/>
      <stop offset="1" stop-color="#22d3ee"/>
    </linearGradient>
  </defs>
  <rect x="6" y="6" width="52" height="52" rx="16" fill="url(#bg)"/>
  <rect x="6.5" y="6.5" width="51" height="51" rx="15.5" fill="none" stroke="rgba(255,255,255,0.16)"/>

  <!-- Database cylinder -->
  <ellipse cx="32" cy="20" rx="14" ry="6" fill="url(#db)" opacity="0.95"/>
  <path d="M18 20v20c0 3.3 6.3 6 14 6s14-2.7 14-6V20" fill="url(#db)" opacity="0.78"/>
  <ellipse cx="32" cy="40" rx="14" ry="6" fill="rgba(0,0,0,0.22)"/>
  <path d="M18 26c0 3.3 6.3 6 14 6s14-2.7 14-6" fill="none" stroke="rgba(229,231,255,0.45)" stroke-width="1.4"/>
  <path d="M18 33c0 3.3 6.3 6 14 6s14-2.7 14-6" fill="none" stroke="rgba(229,231,255,0.35)" stroke-width="1.2"/>
</svg>
